<?xml version="1.0" encoding="utf-8"?>
<!-- Generator: Adobe Illustrator 27.3.1, SVG Export Plug-In . SVG Version: 6.00 Build 0)  -->
<svg version="1.1" id="Layer_1" xmlns="http://www.w3.org/2000/svg" xmlns:xlink="http://www.w3.org/1999/xlink" x="0px" y="0px"
	 viewBox="0 0 68 68" style="enable-background:new 0 0 68 68;" xml:space="preserve">
<style type="text/css">
	.st0{fill:#DDB506;}
	.st1{fill:none;stroke:#002140;stroke-linecap:round;stroke-linejoin:round;}
	.st2{fill:#002140;stroke:#002140;stroke-linecap:round;stroke-linejoin:round;}
	.st3{fill:#FF7102;}
	.st4{fill:#F5D5FF;}
	.st5{fill:#002140;}
</style>
<path class="st0" d="M12.3,13.2L17.6,49c0.1,0.8,0.8,1.3,1.6,1.2l20-3c0.8-0.1,1.3-0.8,1.2-1.6L35.1,9.8c-0.1-0.8-0.8-1.3-1.6-1.2
	l-20,3C12.7,11.7,12.2,12.4,12.3,13.2z"/>
<path class="st1" d="M12.2,13.4l5.3,35.5c0.1,0.9,1,1.5,1.9,1.4l19.4-2.9c0.9-0.1,1.5-1,1.4-1.9L35,10c-0.1-0.9-1-1.5-1.9-1.4
	l-19.4,2.9C12.7,11.6,12.1,12.5,12.2,13.4z"/>
<path class="st2" d="M16.3,11.4L22,49.9l3.4-0.5l-5.7-38.5L16.3,11.4z"/>
<path class="st3" d="M40.7,14.2l-19,30.9c-0.4,0.7-0.2,1.5,0.5,1.9l17.2,10.6c0.7,0.4,1.5,0.2,1.9-0.5l19-30.9
	c0.4-0.7,0.2-1.5-0.5-1.9L42.6,13.8C41.9,13.4,41.1,13.6,40.7,14.2z"/>
<path class="st1" d="M40.5,14.4L21.7,45c-0.5,0.8-0.2,1.8,0.5,2.3L39,57.5c0.8,0.5,1.8,0.2,2.3-0.5l18.8-30.6
	c0.5-0.8,0.2-1.8-0.5-2.3L42.8,13.8C42,13.3,41,13.6,40.5,14.4z"/>
<path class="st1" d="M39.1,53.3l2.8-4.5"/>
<path class="st1" d="M43.2,46.7l2.8-4.5"/>
<path class="st4" d="M37.8,43.1l-3.7-2.3c-0.2-0.1-0.6,0.2-0.8,0.6l-1.8,2.9c-0.2,0.3-0.2,0.5-0.3,0.7l-0.1,1.3c0,0.1,0,0.3,0.1,0.3
	l2.7,1.6c0.1,0,0.2,0,0.3,0l0.9-0.5c0.2-0.1,0.4-0.3,0.6-0.6l2-3.2C37.9,43.6,38,43.2,37.8,43.1L37.8,43.1z"/>
<path class="st5" d="M45.1,21.3l-7.4,12.1c-0.4,0.6-0.2,1.4,0.4,1.7l2.3,1.4c0.6,0.4,1.4,0.2,1.7-0.4l7.4-12.1
	c0.4-0.6,0.2-1.4-0.4-1.7l-2.3-1.4C46.3,20.6,45.5,20.7,45.1,21.3z"/>
</svg>
