<?xml version="1.0" encoding="utf-8"?>
<!-- Generator: Adobe Illustrator 28.1.0, SVG Export Plug-In . SVG Version: 6.00 Build 0)  -->
<svg version="1.1" id="Layer_1" xmlns="http://www.w3.org/2000/svg" xmlns:xlink="http://www.w3.org/1999/xlink" x="0px" y="0px"
	 viewBox="0 0 68 68" style="enable-background:new 0 0 68 68;" xml:space="preserve">
<style type="text/css">
	.st0{fill:#0185FF;}
	.st1{fill:#03D47C;}
	.st2{fill:none;stroke:#002140;stroke-width:0.8235;stroke-linecap:round;stroke-linejoin:round;}
</style>
<path class="st0" d="M34.087,56.643c12.636,0,22.88-10.244,22.88-22.88s-10.244-22.88-22.88-22.88s-22.88,10.244-22.88,22.88
	S21.451,56.643,34.087,56.643z"/>
<path class="st1" d="M39.259,11.981l-2.586,1.878c0,0-3.054,1.998-4.35,1.531c-1.29-0.468-5.407-2.82-5.407-2.82
	S36.673,10.805,39.259,11.981L39.259,11.981z"/>
<path class="st1" d="M29.503,23.617c0,0-3.763-0.354-4.939-2.232c-1.176-1.878-2.586-4.584-2.586-4.584l-2.119-0.354
	c0,0-7.759,5.994-7.993,15.397c-0.234,9.403,6.115,21.98,14.575,22.689c0,0,3.876-8.701,0.354-12.11
	c-3.522-3.408-7.525-2.707-7.993-3.174c-0.468-0.468-2.586-2.941-1.764-4.23c0.822-1.29,3.408-4.705,6.937-4.464
	c3.529,0.234,5.994-1.29,6.349-2.941C30.679,25.962,29.503,23.617,29.503,23.617L29.503,23.617z"/>
<path class="st1" d="M45.134,14.568c0,0-1.212,0.489-1.878,2.586s-0.822,3.054-1.29,3.408c-0.468,0.354-2.466,0.234-2.353,2.352
	c0.121,2.119,1.29,3.295,2.586,3.295c1.297,0,4.705,0.709,4.23,1.998s-4.351,2.82-4.351,2.82s-1.53,1.176-0.588,3.876
	c0.942,2.7,4.23,5.994,4.23,5.994s-0.397,4.514,2.353,5.761c2.749,1.247,3.876,1.53,3.876,1.53s7.291-8.815,4.351-19.868
	C53.36,17.275,45.134,14.568,45.134,14.568L45.134,14.568z"/>
<path class="st2" d="M34.2,56.168c12.464,0,22.568-10.104,22.568-22.568S46.664,11.032,34.2,11.032
	c-12.464,0-22.568,10.104-22.568,22.568S21.736,56.168,34.2,56.168z"/>
<path class="st2" d="M19.987,16.51c1.19-0.156,2.112,1.027,2.579,2.133c0.461,1.113,0.836,2.402,1.892,2.983
	c0.68,0.376,1.495,0.361,2.253,0.51c2.076,0.404,3.826,2.267,3.918,4.379c0.092,2.111-1.658,4.188-3.77,4.287
	c-1.339,0.064-2.657-0.588-3.982-0.397c-0.68,0.099-1.311,0.418-1.934,0.716c-1.417,0.687-2.976,1.417-3.656,2.841
	c-0.659,1.389-0.227,3.132,0.822,4.251c1.049,1.119,2.608,1.665,4.138,1.743c0.723,0.035,1.467-0.021,2.161,0.191
	c0.524,0.163,0.999,0.468,1.396,0.843c2.083,1.956,2.034,5.222,1.828,8.071c-0.128,1.814-0.284,3.706-1.191,5.286"/>
<path class="st2" d="M27.093,12.35c0.269,0.971,1.07,1.715,1.977,2.147c0.907,0.432,1.913,0.595,2.905,0.723
	c0.964,0.128,1.998,0.227,2.87-0.205c1.332-0.659,2.14-2.48,3.628-2.416"/>
<path class="st2" d="M45.148,14.136c-1.53,1.233-2.487,3.153-2.558,5.116c-0.007,0.234-0.014,0.489-0.149,0.68
	c-0.22,0.298-0.652,0.305-1.02,0.354c-1.226,0.163-2.282,1.233-2.423,2.459c-0.142,1.226,0.631,2.508,1.786,2.955
	c1.006,0.383,2.126,0.17,3.203,0.241c1.077,0.071,2.303,0.638,2.43,1.708c0.128,1.042-0.872,1.878-1.842,2.274
	c-0.971,0.397-2.083,0.617-2.792,1.396c-0.744,0.815-0.836,2.041-0.652,3.125c0.34,2.083,1.566,4.011,3.309,5.201
	c0.453,0.312,0.949,0.581,1.304,0.999c0.942,1.105,0.609,2.771,0.971,4.174c0.468,1.793,2.268,3.146,4.117,3.097"/>
</svg>
