<?xml version="1.0" encoding="utf-8"?>
<!-- Generator: Adobe Illustrator 27.3.1, SVG Export Plug-In . SVG Version: 6.00 Build 0)  -->
<svg version="1.1" id="Layer_1" xmlns="http://www.w3.org/2000/svg" xmlns:xlink="http://www.w3.org/1999/xlink" x="0px" y="0px"
	 viewBox="0 0 68 68" style="enable-background:new 0 0 68 68;" xml:space="preserve">
<style type="text/css">
	.st0{fill:#C94CD3;}
	.st1{fill:#49225B;}
	.st2{fill:#F8D004;}
	.st3{fill:#FFECAC;}
	.st4{fill:none;stroke:#002140;stroke-linecap:round;stroke-linejoin:round;}
	.st5{fill:#03D47C;}
	.st6{fill:#8EECC4;}
	.st7{fill:#002140;}
	.st8{fill-rule:evenodd;clip-rule:evenodd;fill:#FED607;}
</style>
<path class="st0" d="M36.9,8l-25,0L7,12.4l0.2,41.4c0,0,0.7,4.6,4.6,5.5c3.9,0.9,21.6,0.5,24.6,0.5s5.1-4.8,5.1-4.8s-0.2-38,0-41.3
	C41.6,10.4,36.9,8,36.9,8L36.9,8z"/>
<path class="st1" d="M7.1,54.2c-0.1,3.3,4,5,4,5l2.6,0.3L11,56.4V11.2L13.8,8L11,8.4l-3.7,3.2C7.4,11.6,7.2,50.9,7.1,54.2L7.1,54.2z
	"/>
<path class="st2" d="M38.4,12.2H13.9v43.6h24.7L38.4,12.2z"/>
<path class="st3" d="M25.2,12.3c-0.3,1,0.3,2.1,1.2,2.7c0.9,0.6,1.9,0.7,3,0.8c1,0,2.1-0.1,3.1,0.1c0.3,0,0.6,0.1,0.8,0.3
	c0.2,0.2,0.4,0.4,0.5,0.7c0.7,1.7,0.3,3.7,0.5,5.6c0.1,0.5,0.2,1,0.5,1.4c0.7,1.1,2.4,1.4,3.7,0.9V12.2L25.2,12.3L25.2,12.3z"/>
<path class="st3" d="M38.2,28c-1-0.1-2,0.7-2.4,1.6c-0.4,0.9-0.4,2-0.4,3c0,1.5,0,3,0,4.5c0,1.2,0,2.3,0.4,3.4c0.4,1.1,1.4,2,2.6,2
	L38.2,28L38.2,28z"/>
<path class="st4" d="M35.8,8H12.9c-3.1,0-5.7,2.5-5.7,5.7v40.1c0,3.1,2.5,5.7,5.7,5.7h22.9c3.1,0,5.7-2.5,5.7-5.7V13.7
	C41.4,10.5,38.9,8,35.8,8z"/>
<path class="st4" d="M16.2,59.4c-3.1,0-5.7-2.5-5.7-5.7V13.7c0-3.1,2.5-5.7,5.7-5.7"/>
<path class="st4" d="M37.4,12.1H15.1c-0.6,0-1.2,0.5-1.2,1.2v41.4c0,0.6,0.5,1.2,1.2,1.2h22.2c0.6,0,1.2-0.5,1.2-1.2V13.2
	C38.5,12.6,38,12.1,37.4,12.1z"/>
<path class="st5" d="M60.3,15.1H21.1c-1.6,0-2.9,1.3-2.9,2.9v20.7c0,1.6,1.3,2.9,2.9,2.9h39.2c1.6,0,2.9-1.3,2.9-2.9V18.1
	C63.3,16.4,61.9,15.1,60.3,15.1z"/>
<path class="st4" d="M59.8,15H21.5c-1.9,0-3.5,1.6-3.5,3.5V38c0,1.9,1.6,3.5,3.5,3.5h38.3c1.9,0,3.5-1.6,3.5-3.5V18.5
	C63.3,16.6,61.8,15,59.8,15z"/>
<path class="st4" d="M22.3,37.2l6.1,0"/>
<path class="st4" d="M31.2,37.2l6.1,0"/>
<path class="st6" d="M31.5,29.7v-5c0-0.3-0.5-0.5-1.1-0.5h-4c-0.3,0-0.7,0.1-0.9,0.2l-1.4,0.7C24,25.2,24,25.3,24,25.4v3.6
	c0,0.1,0.1,0.2,0.2,0.3l1,0.6c0.2,0.1,0.5,0.2,0.9,0.2h4.3C31,30.1,31.5,29.9,31.5,29.7L31.5,29.7z"/>
<path class="st7" d="M58.7,19H42.6c-0.9,0-1.6,0.7-1.6,1.6v2.8c0,0.9,0.7,1.6,1.6,1.6h16.1c0.9,0,1.6-0.7,1.6-1.6v-2.8
	C60.3,19.7,59.6,19,58.7,19z"/>
<circle class="st7" cx="27" cy="48" r="4"/>
<path class="st8" d="M29.2,46c0.3,0.2,0.3,0.6,0.1,0.8l-2.6,3.5l-1.9-1.7c-0.2-0.2-0.3-0.6,0-0.8c0.2-0.2,0.6-0.3,0.8,0l0.9,0.8
	l1.8-2.5C28.5,45.9,28.9,45.8,29.2,46z"/>
</svg>
