<?xml version="1.0" encoding="utf-8"?>
<!-- Generator: Adobe Illustrator 27.3.1, SVG Export Plug-In . SVG Version: 6.00 Build 0)  -->
<svg version="1.1" id="Layer_1" xmlns="http://www.w3.org/2000/svg" xmlns:xlink="http://www.w3.org/1999/xlink" x="0px" y="0px"
	 viewBox="0 0 69 68" style="enable-background:new 0 0 69 68;" xml:space="preserve">
<style type="text/css">
	.st0{fill:#FFF4EA;}
	.st1{fill:none;stroke:#002140;stroke-linecap:round;stroke-linejoin:round;}
	.st2{fill:#02AD68;}
	.st3{fill:#5CDCA4;}
	.st4{fill:#F8D004;}
	.st5{fill:#FFE789;}
	.st6{fill:#CA8000;}
	.st7{fill:none;stroke:#CA8000;stroke-miterlimit:10;}
	.st8{fill:#002140;}
</style>
<path class="st0" d="M59.8,43.2l4.3-1.4L36.1,21c0,0-2-3.9-2.3-5.7c-0.3-1.8-0.1-2.5-0.6-3.6c-1.5,0.5-2.5,5.3-2.5,5.3L27,14
	l-1.9,4.7l-3.7-2.6l-2,3.7l-3.9-2.1l-2,3.6l-3.4-2l-1.8,3.3l-3.8-1.6c0,0,0.5,6.6,4.5,10.1c4.1,3.5,26.6,19.9,26.6,19.9L59.8,43.2
	L59.8,43.2z"/>
<path class="st1" d="M8.4,31.1c-1.5-1.2-4.2-4.9-4-10.6l4,2.2l1.7-3.5l3.6,2.1l1.7-3.8l4,2.4l1.9-4.1l3.7,2.3l2-4
	c0,0,3.2,2.2,3.5,2.4c0.3-2.1,2.9-5.4,2.9-5.4"/>
<path class="st1" d="M37.5,22c-1.2-0.8-3.2-2.6-4.1-11"/>
<path class="st1" d="M36.9,21.6l27.2,20.3l-28.5,9.5L8.4,31.1"/>
<path class="st2" d="M31.2,30.7L11.3,42.6L42.8,58L63,45.7L31.2,30.7z"/>
<path class="st3" d="M31.5,36.8c1.4-0.3,2.3-1.3,2.1-2.2c-0.2-0.9-1.5-1.4-2.8-1.1c-1.4,0.3-2.3,1.3-2.1,2.2
	C28.8,36.6,30.1,37.1,31.5,36.8z"/>
<path class="st3" d="M20.9,43.4c1.2-0.3,2.1-1.2,1.9-2.1c-0.2-0.9-1.4-1.4-2.6-1.2c-1.2,0.3-2.1,1.2-1.9,2.1
	C18.5,43.2,19.6,43.7,20.9,43.4z"/>
<path class="st3" d="M54,48.1c1.2-0.3,2.1-1.2,1.9-2.1c-0.2-0.9-1.4-1.4-2.6-1.2c-1.2,0.3-2.1,1.2-1.9,2.1
	C51.6,47.9,52.8,48.4,54,48.1z"/>
<path class="st1" d="M62.8,46L31,30.4L11,42.7l32,15.3L62.8,46z"/>
<path class="st1" d="M20.9,43.5c1.4-0.3,2.4-1.4,2.2-2.5c-0.2-1.1-1.6-1.7-3-1.4c-1.4,0.3-2.4,1.4-2.2,2.5
	C18.1,43.2,19.5,43.8,20.9,43.5z"/>
<path class="st1" d="M53.9,48.4c1.4-0.3,2.4-1.4,2.2-2.5c-0.2-1.1-1.6-1.7-3-1.4s-2.4,1.4-2.2,2.5C51.1,48.1,52.5,48.7,53.9,48.4z"
	/>
<path class="st1" d="M31.5,37c1.4-0.3,2.4-1.4,2.2-2.5c-0.2-1.1-1.6-1.7-3-1.4c-1.4,0.3-2.4,1.4-2.2,2.5
	C28.7,36.7,30.1,37.3,31.5,37z"/>
<path class="st2" d="M37.6,25.7l-22,7.4l27.5,21.7l22.3-7.7L37.6,25.7z"/>
<path class="st3" d="M36.5,31.7c1.4,0,2.5-0.7,2.5-1.7c0-0.9-1.1-1.7-2.5-1.7S34,29.1,34,30C34,31,35.2,31.7,36.5,31.7z"/>
<path class="st3" d="M24.8,35.9c1.3,0,2.3-0.7,2.3-1.7c0-0.9-1-1.7-2.3-1.7s-2.3,0.7-2.3,1.7C22.5,35.2,23.5,35.9,24.8,35.9z"/>
<path class="st3" d="M44.4,51.4c1.3,0,2.3-0.7,2.3-1.7c0-0.9-1-1.7-2.3-1.7s-2.3,0.7-2.3,1.7C42.2,50.6,43.2,51.4,44.4,51.4z"/>
<path class="st3" d="M56.2,47.6c1.3,0,2.3-0.7,2.3-1.7c0-0.9-1-1.7-2.3-1.7c-1.3,0-2.3,0.7-2.3,1.7C53.9,46.8,54.9,47.6,56.2,47.6z"
	/>
<path class="st3" d="M44.7,37.6c0,0-6.4-4.3-9.5-2.8c-3.1,1.5-0.5,6.4,1.1,7.6c1.6,1.2,6.6,4,9.6,2.6C48.9,43.6,46.2,38.3,44.7,37.6
	L44.7,37.6z"/>
<path class="st1" d="M65.2,47.4l-27.8-22l-22.1,7.7l28,21.7L65.2,47.4z"/>
<path class="st1" d="M24.8,36c1.5,0,2.6-0.9,2.6-2c0-1.1-1.2-2-2.6-2c-1.5,0-2.6,0.9-2.6,2C22.1,35.1,23.3,36,24.8,36z"/>
<path class="st1" d="M44.5,51.7c1.5,0,2.6-0.9,2.6-2c0-1.1-1.2-2-2.6-2c-1.5,0-2.6,0.9-2.6,2C41.8,50.8,43,51.7,44.5,51.7z"/>
<path class="st1" d="M56,47.8c1.5,0,2.6-0.9,2.6-2c0-1.1-1.2-2-2.6-2c-1.5,0-2.6,0.9-2.6,2C53.4,46.9,54.6,47.8,56,47.8z"/>
<path class="st1" d="M36.5,31.9c1.5,0,2.6-0.9,2.6-2c0-1.1-1.2-2-2.6-2c-1.5,0-2.6,0.9-2.6,2C33.9,31,35,31.9,36.5,31.9z"/>
<path class="st1" d="M46.9,44.1c1.3-2.1-0.6-5.6-4.2-7.9c-3.6-2.3-7.7-2.5-9-0.4c-1.3,2.1,0.6,5.6,4.2,7.9
	C41.6,45.9,45.6,46.1,46.9,44.1z"/>
<path class="st4" d="M38.9,33c0,0,1.4,2.8,10.6,2.5c9.3-0.3,10.3-2.1,10.3-2.7c0-0.6-4.2-2.5-9.8-2.4C44.4,30.5,39.1,31.1,38.9,33
	L38.9,33z"/>
<path class="st5" d="M39.7,32.1c0.9,0.6,2.1,0.7,3.2,0.5c1.1-0.2,2.1-0.5,3.2-0.7c1.3-0.2,2.5,0,3.8,0c0.5,0,1,0,1.5-0.3
	c0.5-0.2,0.8-0.7,0.8-1.2c0,0-3.8-0.1-6.8,0.1C42.4,30.8,39.7,32.1,39.7,32.1L39.7,32.1z"/>
<path class="st6" d="M39.1,33.5v3.1c0,0,3.9,2.1,10.8,2.1c7,0,10.1-2.2,10.1-2.2v-3.1c0,0-3.2,2.4-10.4,2.2
	C42.4,35.2,39.9,34.1,39.1,33.5L39.1,33.5z"/>
<path class="st1" d="M49.5,35.4c5.8,0,10.5-1.1,10.5-2.4c0-1.3-4.7-2.4-10.5-2.4S39,31.6,39,32.9C39,34.3,43.7,35.4,49.5,35.4z"/>
<path class="st1" d="M39,32.9v3.2c0,1.3,4.7,2.4,10.5,2.4S60,37.5,60,36.1v-3.2"/>
<path class="st7" d="M49.5,33.7c2.2,0,4-0.4,4-0.8c0-0.4-1.8-0.8-4-0.8c-2.2,0-4,0.4-4,0.8C45.5,33.3,47.3,33.7,49.5,33.7z"/>
<path class="st8" d="M16.6,34.3l-2.3,1.1l3.9,2.4l1.7-1.1L16.6,34.3z"/>
<path class="st8" d="M59,37.4l2.1,1.8c0,0-3.7,1.1-4.8,1.1l-2.1-1.8L59,37.4z"/>
</svg>
