<?xml version="1.0" encoding="utf-8"?>
<!-- Generator: Adobe Illustrator 27.3.1, SVG Export Plug-In . SVG Version: 6.00 Build 0)  -->
<svg version="1.1" id="Layer_1" xmlns="http://www.w3.org/2000/svg" xmlns:xlink="http://www.w3.org/1999/xlink" x="0px" y="0px"
	 viewBox="0 0 69 68" style="enable-background:new 0 0 69 68;" xml:space="preserve">
<style type="text/css">
	.st0{fill:#0164BF;}
	.st1{fill:#003C73;}
	.st2{fill:#002140;}
	.st3{fill:#F9B5FE;}
	.st4{fill:none;stroke:#002140;stroke-linecap:round;stroke-linejoin:round;}
</style>
<path class="st0" d="M43.6,15.1v-3.4c0,0-0.9-3.5-3.8-3.5H29.1c0,0-3.2,0.4-3.2,2.7v4.2h3.4c0,0,0-3.5,2.4-3.5H38
	c0,0,1.6,0.9,1.6,3.3L43.6,15.1L43.6,15.1z"/>
<path class="st0" d="M23.9,58.5V15.7c0,0-7,0.6-7,6s-0.4,30.5-0.4,30.5S17.4,58.2,23.9,58.5L23.9,58.5z"/>
<path class="st1" d="M45.2,15.1H23.9V59h20.1c0,0,7.3-1.6,7.3-7.4V22.4C51.4,22.4,52.3,17.6,45.2,15.1L45.2,15.1z"/>
<path class="st2" d="M31.7,21.5c0-1.3-1.1-2.4-2.4-2.4c-1.3,0-2.4,1.1-2.4,2.4v29.9c0,1.3,1.1,2.4,2.4,2.4c1.3,0,2.4-1.1,2.4-2.4
	V21.5z"/>
<path class="st2" d="M39.2,21.5c0-1.3-1.1-2.4-2.4-2.4c-1.3,0-2.4,1.1-2.4,2.4v29.9c0,1.3,1.1,2.4,2.4,2.4c1.3,0,2.4-1.1,2.4-2.4
	V21.5z"/>
<path class="st2" d="M46.7,21.5c0-1.3-1.1-2.4-2.4-2.4c-1.3,0-2.4,1.1-2.4,2.4v29.9c0,1.3,1.1,2.4,2.4,2.4c1.3,0,2.4-1.1,2.4-2.4
	V21.5z"/>
<path class="st3" d="M46.7,27l-4-1.8l-3.1,2.9l1.5,9.3l7.1-1L46.7,27z"/>
<path class="st4" d="M43.8,15.2H24.2c-4.2,0-7.6,3.4-7.6,7.6v28.4c0,4.2,3.4,7.6,7.6,7.6h19.6c4.2,0,7.6-3.4,7.6-7.6V22.8
	C51.5,18.6,48,15.2,43.8,15.2z"/>
<path class="st4" d="M23.8,58.7V15.3"/>
<path class="st2" d="M23.8,64.2c1.4,0,2.5-1.1,2.5-2.5c0-1.4-1.1-2.5-2.5-2.5s-2.5,1.1-2.5,2.5C21.3,63.1,22.4,64.2,23.8,64.2z"/>
<path class="st2" d="M43.7,64.2c1.4,0,2.5-1.1,2.5-2.5c0-1.4-1.1-2.5-2.5-2.5c-1.4,0-2.5,1.1-2.5,2.5C41.2,63.1,42.3,64.2,43.7,64.2
	z"/>
<path class="st4" d="M43.5,14.9v-3.1c0-2.1-1.7-3.8-3.8-3.8H29.5c-2.1,0-3.8,1.7-3.8,3.8v3.1"/>
<path class="st4" d="M39.7,15v-1.3c0-1.3-1.1-2.4-2.4-2.4H32c-1.3,0-2.4,1.1-2.4,2.4v1.3"/>
<path class="st4" d="M31.3,15.4c1.8,1.2,8,5.6,11.1,9.8c0,0,1.3-4.9,0.5-9.7"/>
<path class="st4" d="M39.4,28.1l1.5,9.5l7.1-1.1l-1.5-9.7l-4-1.6L39.4,28.1z"/>
<path class="st1" d="M23.8,62.6c0.5,0,0.9-0.4,0.9-0.9c0-0.5-0.4-0.9-0.9-0.9c-0.5,0-0.9,0.4-0.9,0.9C22.9,62.2,23.3,62.6,23.8,62.6
	z"/>
<path class="st1" d="M43.7,62.6c0.5,0,0.9-0.4,0.9-0.9c0-0.5-0.4-0.9-0.9-0.9c-0.5,0-0.9,0.4-0.9,0.9C42.8,62.2,43.2,62.6,43.7,62.6
	z"/>
</svg>
